<svg xmlns="http://www.w3.org/2000/svg" version="1.1" xlink="http://www.w3.org/1999/xlink" xmlns:svgjs="http://svgjs.com/svgjs" width="100%" height="100%" preserveAspectRatio="xMidYMid meet" viewBox="0.0011472271289676428 1.8849237903850735e-7 300.00469970703125 84.87236785888672" overflow="visible"><defs id="SvgjsDefs100291"><linearGradient id="SvgjsLinearGradientWw_MwB0Va2Y" gradientUnits="userSpaceOnUse" x1="16.30279233091459" y1="96.38229197897248" x2="83.70020766908544" y2="3.617708021027541"><stop id="SvgjsStop100294" stop-color="#f3d95b" offset="0.0799"></stop><stop id="SvgjsStop100295" stop-color="#c3d486" offset="0.945"></stop></linearGradient><linearGradient id="SvgjsLinearGradientMR2N62S2c6d" gradientUnits="userSpaceOnUse" x1="-35.21648341520039" y1="61.931086022463234" x2="36.00648341520041" y2="-123.61108602246323"><stop id="SvgjsStop100298" stop-color="#f3d95b" offset="0"></stop><stop id="SvgjsStop100299" stop-color="#c3d486" offset="1"></stop></linearGradient></defs><g id="SvgjsG100292" transform="scale(0.5850693896498854)" opacity="1"><g id="SvgjsG100296" class="j0oyfpuaF" transform="translate(-24.88894684551245, -6.291697898618974) scale(1.5764715356098657)" light-content="false" non-strokable="false" fill="url(#SvgjsLinearGradientWw_MwB0Va2Y)"><path d="M69.974 34.035v3.929c6.803 5.711 11.137 14.275 11.137 23.833 0 10.928-5.665 20.556-14.211 26.105V59.087l-9.219-5.079v37.938c-1.005.256-2.03.463-3.071.618v-58.51l-9.217-5.082v63.591a30.883 30.883 0 0 1-3.073-.618V9.071l-9.217-5.08v83.912c-8.547-5.55-14.211-15.179-14.211-26.106 0-9.558 4.333-18.122 11.138-23.833v-3.929c-8.619 6.218-14.241 16.345-14.241 27.762 0 18.864 15.348 34.212 34.212 34.212 18.865 0 34.213-15.348 34.213-34.212-.001-11.417-5.623-21.544-14.24-27.762z"></path></g><g id="SvgjsG100300" class="text" transform="translate(317.71970414634916, 110.61214972352795) scale(1)" light-content="false" fill="url(#SvgjsLinearGradientMR2N62S2c6d)"><path d="M-178.04 -3.22C-172.99 -0.48 -167.32 0.88 -161.04 0.88C-154.75 0.88 -149.08 -0.48 -144.03 -3.22C-138.98 -5.95 -135.01 -9.72 -132.13 -14.54C-129.26 -19.36 -127.82 -24.79 -127.82 -30.84C-127.82 -36.89 -129.26 -42.33 -132.13 -47.14C-135.01 -51.96 -138.98 -55.73 -144.03 -58.47C-149.08 -61.2 -154.75 -62.56 -161.04 -62.56C-167.32 -62.56 -172.99 -61.2 -178.04 -58.47C-183.1 -55.73 -187.06 -51.95 -189.94 -47.1C-192.82 -42.25 -194.26 -36.83 -194.26 -30.84C-194.26 -24.85 -192.82 -19.43 -189.94 -14.58C-187.06 -9.74 -183.1 -5.95 -178.04 -3.22ZM-149.93 -11.94C-153.22 -10.09 -156.92 -9.16 -161.04 -9.16C-165.15 -9.16 -168.85 -10.09 -172.14 -11.94C-175.43 -13.79 -178.01 -16.38 -179.89 -19.69C-181.77 -23.01 -182.71 -26.73 -182.71 -30.84C-182.71 -34.95 -181.77 -38.67 -179.89 -41.99C-178.01 -45.31 -175.43 -47.89 -172.14 -49.74C-168.85 -51.59 -165.15 -52.52 -161.04 -52.52C-156.92 -52.52 -153.22 -51.59 -149.93 -49.74C-146.64 -47.89 -144.06 -45.31 -142.18 -41.99C-140.3 -38.67 -139.36 -34.95 -139.36 -30.84C-139.36 -26.73 -140.3 -23.01 -142.18 -19.69C-144.06 -16.38 -146.64 -13.79 -149.93 -11.94Z M-103.63 -3.22C-98.6 -0.48 -92.98 0.88 -86.75 0.88C-81.7 0.88 -77.07 0 -72.87 -1.76C-68.67 -3.52 -65.13 -6.08 -62.26 -9.43L-69.66 -16.48C-74.12 -11.6 -79.62 -9.16 -86.14 -9.16C-90.37 -9.16 -94.15 -10.09 -97.5 -11.94C-100.85 -13.79 -103.47 -16.36 -105.35 -19.65C-107.23 -22.94 -108.17 -26.67 -108.17 -30.84C-108.17 -35.01 -107.23 -38.74 -105.35 -42.03C-103.47 -45.32 -100.85 -47.89 -97.5 -49.74C-94.15 -51.59 -90.37 -52.52 -86.14 -52.52C-79.62 -52.52 -74.12 -50.11 -69.66 -45.29L-62.26 -52.25C-65.13 -55.6 -68.66 -58.16 -72.83 -59.92C-77 -61.68 -81.61 -62.56 -86.66 -62.56C-92.89 -62.56 -98.52 -61.2 -103.54 -58.47C-108.56 -55.73 -112.51 -51.96 -115.39 -47.14C-118.27 -42.33 -119.71 -36.89 -119.71 -30.84C-119.71 -24.79 -118.28 -19.36 -115.44 -14.54C-112.59 -9.72 -108.65 -5.95 -103.63 -3.22Z M-51.51 -61.68L-51.51 0L-23.75 0C-15.93 0 -9.91 -1.66 -5.68 -4.98C-1.45 -8.3 0.66 -13.01 0.66 -19.12C0.66 -24.94 -1.26 -29.39 -5.11 -32.47C-8.96 -35.56 -14.58 -37.1 -21.99 -37.1L-40.23 -37.1L-40.23 -52.25L-3.48 -52.25L-3.48 -61.68ZM-24.36 -8.81L-40.23 -8.81L-40.23 -28.29L-24.36 -28.29C-15.38 -28.29 -10.88 -25.11 -10.88 -18.77C-10.88 -15.54 -12.03 -13.07 -14.32 -11.37C-16.61 -9.66 -19.96 -8.81 -24.36 -8.81Z M13.26 -61.68L13.26 0L41.02 0C48.83 0 54.85 -1.66 59.08 -4.98C63.31 -8.3 65.43 -13.01 65.43 -19.12C65.43 -24.94 63.5 -29.39 59.66 -32.47C55.81 -35.56 50.18 -37.1 42.78 -37.1L24.54 -37.1L24.54 -52.25L61.29 -52.25L61.29 -61.68ZM40.4 -8.81L24.54 -8.81L24.54 -28.29L40.4 -28.29C49.39 -28.29 53.88 -25.11 53.88 -18.77C53.88 -15.54 52.74 -13.07 50.45 -11.37C48.16 -9.66 44.81 -8.81 40.4 -8.81Z M142.18 -9.69L113.1 -9.69L129.58 -25.38C133.57 -29.14 136.28 -32.49 137.69 -35.42C139.09 -38.36 139.8 -41.5 139.8 -44.85C139.8 -50.32 137.8 -54.63 133.81 -57.81C129.81 -60.98 124.47 -62.56 117.77 -62.56C112.72 -62.56 108.15 -61.67 104.07 -59.88C99.99 -58.08 96.74 -55.57 94.33 -52.34L102.35 -46.17C105.7 -50.46 110.52 -52.61 116.8 -52.61C120.56 -52.61 123.41 -51.84 125.35 -50.32C127.29 -48.79 128.26 -46.59 128.26 -43.71C128.26 -41.77 127.77 -39.81 126.8 -37.85C125.83 -35.88 123.97 -33.57 121.21 -30.93L96.71 -7.67L96.71 0L142.18 0Z M195.05 -61.68L147.11 -61.68L147.11 -41.5L157.78 -41.5L157.78 -51.99L182.01 -51.99L158.83 0L171.08 0L195.05 -54.02Z"></path></g></g></svg>
