<svg xmlns="http://www.w3.org/2000/svg" version="1.1" xlink="http://www.w3.org/1999/xlink" xmlns:svgjs="http://svgjs.com/svgjs" width="100%" height="100%" preserveAspectRatio="xMidYMid meet" viewBox="0 0 300 88" overflow="visible"><defs id="SvgjsDefs87562"></defs><g id="SvgjsG87563" transform="scale(0.6880733944954128)" opacity="1"><g id="SvgjsG87564" class="zwofVYXuR" transform="translate(0, 0) scale(1)" light-content="false" fill="#235f83"><path d="M0 0 h 436 v 7 h -436 Z M0 0 h 7 v 129 h -7 Z M436 129 h -130.8 v -7 h 130.8 ZM130.79999999999998 129 h -130.79999999999998 v -7 h 130.79999999999998 Z M436 129 h -7 v -129 h 7 Z" fill-rule="nonzero"></path></g><g id="SvgjsG87565" class="8ONpwWYpr" transform="translate(24.581862506559823, 8.8022654795567) scale(1.1374219485645016)" stroke="#000000" stroke-width="1.3646922716738332px" light-content="false" non-strokable="false" fill="#235f83"><path d="M22.543 49.082v41.602H11.188c-1.04 0-1.871-.875-1.871-1.914V54.075H6.82a2.503 2.503 0 0 1-2.496-2.496 2.478 2.478 0 0 1 2.496-2.496zm73.133 2.5a2.506 2.506 0 0 1-2.496 2.496h-2.496v34.695c0 1.04-.832 1.914-1.871 1.914H77.458V49.085H93.18a2.471 2.471 0 0 1 2.496 2.496zM70.801 16.637H52.496v-5.824A2.478 2.478 0 0 0 50 8.317a2.476 2.476 0 0 0-2.496 2.496v5.824H29.199a1.67 1.67 0 0 0-1.664 1.664v72.383h11.648V78.622a4.564 4.564 0 0 1 4.578-4.578h12.48a4.567 4.567 0 0 1 4.578 4.578v12.062h11.648l-.004-72.383a1.67 1.67 0 0 0-1.664-1.664zM41.68 66.555h-4.16a2.503 2.503 0 0 1-2.496-2.496 2.478 2.478 0 0 1 2.496-2.496h4.16a2.476 2.476 0 0 1 2.496 2.496 2.5 2.5 0 0 1-2.496 2.496zm0-12.48h-4.16a2.503 2.503 0 0 1-2.496-2.496 2.478 2.478 0 0 1 2.496-2.496h4.16a2.476 2.476 0 0 1 2.496 2.496 2.5 2.5 0 0 1-2.496 2.496zm0-12.477h-4.16a2.503 2.503 0 0 1-2.496-2.496 2.478 2.478 0 0 1 2.496-2.496h4.16a2.476 2.476 0 0 1 2.496 2.496 2.503 2.503 0 0 1-2.496 2.496zm0-12.48h-4.16a2.503 2.503 0 0 1-2.496-2.496 2.478 2.478 0 0 1 2.496-2.496h4.16a2.476 2.476 0 0 1 2.496 2.496 2.503 2.503 0 0 1-2.496 2.496zm20.801 37.438h-4.16a2.503 2.503 0 0 1-2.496-2.496 2.478 2.478 0 0 1 2.496-2.496h4.16a2.476 2.476 0 0 1 2.496 2.496 2.503 2.503 0 0 1-2.496 2.496zm0-12.48h-4.16a2.503 2.503 0 0 1-2.496-2.496 2.478 2.478 0 0 1 2.496-2.496h4.16a2.476 2.476 0 0 1 2.496 2.496 2.503 2.503 0 0 1-2.496 2.496zm0-12.477h-4.16a2.503 2.503 0 0 1-2.496-2.496 2.478 2.478 0 0 1 2.496-2.496h4.16a2.476 2.476 0 0 1 2.496 2.496 2.506 2.506 0 0 1-2.496 2.496zm0-12.48h-4.16a2.503 2.503 0 0 1-2.496-2.496 2.478 2.478 0 0 1 2.496-2.496h4.16a2.476 2.476 0 0 1 2.496 2.496 2.506 2.506 0 0 1-2.496 2.496z"></path></g><g id="SvgjsG87566" class="text" transform="translate(280.7701279531164, 102.13866676928616) scale(1)" stroke="#000000" stroke-width="2px" light-content="false" fill="#235f83"><path d="M-111.28 0.2C-109.31 0.5 -107.15 0.65 -104.81 0.65C-99.96 0.65 -95.58 -0.13 -91.68 -1.69C-89.52 -2.56 -87.81 -3.83 -86.58 -5.52C-85.34 -7.21 -84.73 -9.23 -84.73 -11.57L-84.73 -30.03C-84.73 -32.28 -85.2 -34.21 -86.16 -35.81C-87.07 -37.37 -88.19 -38.59 -89.54 -39.45C-90.88 -40.32 -92.59 -41.06 -94.67 -41.66C-96.49 -42.14 -98.14 -42.46 -99.61 -42.61C-101.09 -42.76 -102.82 -42.83 -104.81 -42.83C-106.5 -42.83 -108.11 -42.77 -109.62 -42.64C-111.27 -42.51 -113.05 -42.16 -114.95 -41.6C-116.86 -41.04 -118.46 -40.34 -119.76 -39.52C-121.24 -38.57 -122.44 -37.27 -123.37 -35.62C-124.3 -33.97 -124.77 -32.11 -124.77 -30.03L-124.77 -11.57C-124.77 -9.06 -124.12 -6.92 -122.82 -5.17C-121.52 -3.41 -119.72 -2.14 -117.42 -1.36C-115.3 -0.63 -113.25 -0.11 -111.28 0.2ZM-101.07 -6.73C-102.05 -6.62 -103.25 -6.56 -104.68 -6.56C-106.11 -6.56 -107.31 -6.62 -108.29 -6.73C-109.26 -6.84 -110.27 -7.04 -111.31 -7.35C-112.4 -7.65 -113.22 -8.16 -113.78 -8.87C-114.35 -9.59 -114.63 -10.49 -114.63 -11.57L-114.63 -30.1C-114.63 -32.13 -113.83 -33.56 -112.22 -34.38C-110.62 -35.21 -108.13 -35.62 -104.75 -35.62C-101.37 -35.62 -98.88 -35.2 -97.27 -34.35C-95.67 -33.51 -94.87 -32.09 -94.87 -30.1L-94.87 -11.57C-94.87 -10.49 -95.14 -9.59 -95.68 -8.87C-96.22 -8.16 -97.01 -7.65 -98.05 -7.35C-99.09 -7.04 -100.1 -6.84 -101.07 -6.73Z M-62.98 0.39C-61.49 0.56 -59.79 0.65 -57.88 0.65C-53.42 0.65 -48.87 0.17 -44.23 -0.78L-44.23 -8.45C-49.65 -7.19 -53.85 -6.56 -56.84 -6.56C-63.82 -6.56 -67.31 -8.47 -67.31 -12.28L-67.31 -30.22C-67.31 -32.61 -66.29 -34.15 -64.25 -34.84C-63.3 -35.19 -62.38 -35.4 -61.49 -35.49C-60.6 -35.58 -59.36 -35.62 -57.75 -35.62C-53.94 -35.62 -49.52 -35.01 -44.49 -33.8L-44.49 -41.4C-50.08 -42.36 -54.55 -42.83 -57.88 -42.83C-70.93 -42.83 -77.45 -38.59 -77.45 -30.1L-77.45 -11.57C-77.45 -9.49 -76.99 -7.69 -76.08 -6.17C-75.22 -4.66 -74.13 -3.48 -72.83 -2.63C-71.53 -1.79 -69.89 -1.1 -67.89 -0.58C-66.12 -0.11 -64.48 0.22 -62.98 0.39Z M-37.73 -42.18L-37.73 0L-21.74 0C-10.39 0 -4.71 -3.34 -4.71 -10.01L-4.71 -16.64C-4.71 -19.02 -5.33 -20.85 -6.57 -22.13C-7.8 -23.41 -9.59 -24.28 -11.93 -24.73C-14.27 -25.19 -17.39 -25.41 -21.29 -25.41L-27.59 -25.41L-27.59 -34.97L-7.77 -34.97L-7.77 -42.18ZM-22.2 -7.21L-27.66 -7.21L-27.66 -18.2L-22.07 -18.2C-19.51 -18.2 -17.67 -17.96 -16.54 -17.48C-15.42 -17.01 -14.85 -16.1 -14.85 -14.75L-14.85 -11.57C-14.85 -10.1 -15.44 -9 -16.61 -8.29C-17.78 -7.57 -19.64 -7.21 -22.2 -7.21Z M2.44 -42.18L2.44 0L18.43 0C29.78 0 35.46 -3.34 35.46 -10.01L35.46 -16.64C35.46 -19.02 34.84 -20.85 33.61 -22.13C32.37 -23.41 30.58 -24.28 28.24 -24.73C25.9 -25.19 22.78 -25.41 18.88 -25.41L12.58 -25.41L12.58 -34.97L32.4 -34.97L32.4 -42.18ZM17.97 -7.21L12.51 -7.21L12.51 -18.2L18.1 -18.2C20.66 -18.2 22.5 -17.96 23.63 -17.48C24.75 -17.01 25.32 -16.1 25.32 -14.75L25.32 -11.57C25.32 -10.1 24.73 -9 23.56 -8.29C22.39 -7.57 20.53 -7.21 17.97 -7.21Z M56.78 -9.62L56.78 0L86.42 0L86.42 -7.08L66.14 -7.08L66.14 -9.23C66.14 -10.53 66.78 -11.66 68.06 -12.61C69.33 -13.56 71.08 -14.43 73.29 -15.21C75.32 -15.86 77.32 -16.6 79.27 -17.42C81.35 -18.24 83.05 -19.47 84.37 -21.09C85.69 -22.72 86.35 -24.63 86.35 -26.85L86.35 -32.69C86.35 -36.33 85.11 -38.93 82.62 -40.5C80.12 -42.05 76.32 -42.83 71.21 -42.83C66.48 -42.83 61.96 -42.38 57.62 -41.47L57.62 -34.32C62.52 -35.4 66.46 -35.94 69.45 -35.94C71.92 -35.94 73.74 -35.71 74.91 -35.23C76 -34.8 76.54 -33.91 76.54 -32.56L76.54 -27.17C76.54 -26.04 75.93 -25.07 74.72 -24.24C73.5 -23.42 71.79 -22.64 69.58 -21.9C67.37 -21.17 65.44 -20.43 63.8 -19.69C61.72 -18.78 60.03 -17.46 58.73 -15.73C57.43 -14 56.78 -11.96 56.78 -9.62Z M113.78 -34.77L97.53 0L108.06 0L124.25 -35.68L124.25 -42.18L93.31 -42.18L93.31 -34.77Z"></path></g></g></svg>