<svg xmlns="http://www.w3.org/2000/svg" version="1.1" xlink="http://www.w3.org/1999/xlink" xmlns:svgjs="http://svgjs.com/svgjs" width="100%" height="100%" preserveAspectRatio="xMidYMid meet" viewBox="0.001987011870369315 3.264711665451614e-7 109.30987548828125 147" overflow="visible"><defs id="SvgjsDefs90280"><linearGradient id="SvgjsLinearGradientDOWAWwdsoH" gradientUnits="userSpaceOnUse" x1="16.30279233091459" y1="96.38229197897248" x2="83.70020766908544" y2="3.617708021027541"><stop id="SvgjsStop90283" stop-color="#f3d95b" offset="0.0799"></stop><stop id="SvgjsStop90284" stop-color="#c3d486" offset="0.945"></stop></linearGradient></defs><g id="SvgjsG90281" transform="scale(1.0133475257093831)" opacity="1"><g id="SvgjsG90285" class="-9aOVDwjF" transform="translate(-24.88894684551245, -6.291697898618974) scale(1.5764715356098657)" stroke="#000000" stroke-width="1.2686559540234834px" light-content="false" non-strokable="false" fill="url(#SvgjsLinearGradientDOWAWwdsoH)"><path d="M69.974 34.035v3.929c6.803 5.711 11.137 14.275 11.137 23.833 0 10.928-5.665 20.556-14.211 26.105V59.087l-9.219-5.079v37.938c-1.005.256-2.03.463-3.071.618v-58.51l-9.217-5.082v63.591a30.883 30.883 0 0 1-3.073-.618V9.071l-9.217-5.08v83.912c-8.547-5.55-14.211-15.179-14.211-26.106 0-9.558 4.333-18.122 11.138-23.833v-3.929c-8.619 6.218-14.241 16.345-14.241 27.762 0 18.864 15.348 34.212 34.212 34.212 18.865 0 34.213-15.348 34.213-34.212-.001-11.417-5.623-21.544-14.24-27.762z"></path></g></g></svg>